<svg width="120" height="26" viewBox="0 0 120 26" fill="none" xmlns="http://www.w3.org/2000/svg">
<path d="M80.0961 16.826V19.9286H78.9512C75.3067 19.9286 73.6409 18.6866 73.6409 13.7236V5.03821H77.4931V13.7236C77.4931 15.3989 78.0128 15.7926 78.9512 15.7926H79.0545L80.0961 16.826Z" fill="#D5CC65"/>
<path d="M84.469 16.826V19.9285H79.8894L78.8478 18.894V15.7926H83.4285L84.469 16.826Z" fill="#D5CC65"/>
<path d="M88.8431 16.826V19.9285H84.2624L83.2219 18.894V15.7926H87.8015L88.8431 16.826Z" fill="#D5CC65"/>
<path d="M93.2161 16.826V19.9285H88.6366L87.595 18.894V15.7926H92.1756L93.2161 16.826Z" fill="#D5CC65"/>
<path d="M97.5903 16.826V19.9285H93.0085L91.968 18.894V15.7926H96.5487L97.5903 16.826Z" fill="#D5CC65"/>
<path d="M102.9 7.85057C102.9 8.98772 102.276 9.69137 100.964 9.69137C100.401 9.69137 99.9433 9.44316 99.6313 9.02964C99.3814 9.73329 98.7563 10.2086 97.8201 10.2086C96.6331 10.2086 96.0289 9.48509 95.8002 8.28517L95.6125 7.29253C96.1322 7.06422 96.6741 6.91974 97.2371 6.81718C97.487 8.18144 97.5081 8.55423 98.05 8.55423C98.4664 8.55423 98.5908 8.24325 98.5908 7.91349C98.5908 7.78884 98.5697 7.66418 98.5497 7.56163L98.382 6.85798L99.9233 6.58887L100.111 7.39509C100.214 7.82965 100.424 8.03697 100.715 8.03697C101.11 8.03697 101.235 7.82965 101.235 7.49878C101.235 7.1679 101.089 6.69254 100.964 6.23815C101.505 6.11463 102.025 6.05176 102.525 6.05176C102.775 6.73446 102.899 7.33444 102.899 7.85057" fill="#D5CC65"/>
<path d="M97.3827 19.9285L96.3411 18.894V15.7926H96.4455C97.3616 15.7926 97.9024 15.3173 97.9024 13.5174V11.6556H101.755V13.7236C101.755 15.3162 102.255 15.7926 103.213 15.7926H103.317L104.359 16.826V19.9285H104.254C102.693 19.9285 101.838 19.0396 101.464 16.9297C100.84 19.0804 99.3405 19.9285 97.5904 19.9285H97.3816H97.3827ZM104.566 23.6508C103.921 24.4163 102.943 25.346 102.172 25.9261C101.712 25.5743 101.131 25.0581 100.611 24.5618C100.09 25.0581 99.5282 25.5743 99.0484 25.9261C98.2999 25.3471 97.2583 24.4174 96.6542 23.6508C97.2583 22.8865 98.2999 21.9557 99.0484 21.3755C99.5282 21.7273 100.09 22.2435 100.611 22.7398C101.131 22.2435 101.714 21.7273 102.172 21.3755C102.942 21.9545 103.921 22.8854 104.566 23.6508Z" fill="#D5CC65"/>
<path d="M112.397 0.0739746C112.564 0.61109 112.647 1.14931 112.688 1.68753L106.526 2.76286C106.358 2.22464 106.275 1.68753 106.234 1.14931L112.397 0.0739746Z" fill="#D5CC65"/>
<path d="M119.872 13.1037C119.872 14.1371 119.623 15.6271 119.249 16.8259C118.103 18.2311 117.061 19.1013 114.251 20.1347C112.73 19.9086 111.002 19.3704 109.482 18.5223C108.025 19.3902 106.316 19.9285 104.671 19.9285H104.151L103.109 18.894V15.7925H106.378C105.837 14.9433 105.505 13.9926 105.505 12.9371C105.505 10.9111 106.858 9.38025 109.293 9.38025C111.937 9.38025 113.52 10.8284 113.52 12.8952C113.52 13.9915 113.061 15.0878 112.292 16.1014C113.52 16.1631 115.061 16.205 116.957 16.205C117.081 15.7077 117.164 15.1914 117.164 14.6952C117.164 11.0357 114.208 8.34573 107.274 8.34573C107.441 6.91857 107.837 4.83077 108.211 4.20984C114.999 4.20984 119.871 7.66411 119.871 13.1026M108.002 14.426C108.002 14.9841 108.376 15.3977 109.293 15.6668C110.479 15.4396 110.814 14.9632 110.814 14.426C110.814 13.7852 110.251 13.5162 109.398 13.5162C108.418 13.5162 108.002 13.7852 108.002 14.426Z" fill="#D5CC65"/>
<path d="M0.0724487 3.48096H3.60595V9.80615H9.86564V3.48096H13.3991V18.9701H9.86564V12.5799H3.60595V18.9701H0.0724487V3.48096Z" fill="white"/>
<path d="M15.6257 15.829C15.6257 13.1865 18.0677 12.1894 21.5578 12.1894H22.8449V11.7339C22.8449 10.3906 22.4295 9.65496 20.9915 9.65496C19.7478 9.65496 19.1814 10.2825 19.0505 11.2575H16.0622C16.2587 8.57186 18.3963 7.37964 21.188 7.37964C23.9798 7.37964 25.9653 8.5068 25.9653 11.5817V18.969H22.8893V17.6047C22.2352 18.5135 21.2314 19.2072 19.4435 19.2072C17.3703 19.2072 15.6268 18.2101 15.6268 15.8279M22.846 15.0052V14.0523H21.6245C19.7922 14.0523 18.7228 14.4426 18.7228 15.6559C18.7228 16.4786 19.2248 17.0201 20.3808 17.0201C21.7777 17.0201 22.846 16.2624 22.846 15.0052Z" fill="white"/>
<path d="M31.7452 17.822L27.2079 7.64001H30.6103L33.3809 14.4427L35.9328 7.64001H38.9643L32.7913 22.8259H29.7386L31.7452 17.822Z" fill="white"/>
<path d="M44.2658 17.822L39.7285 7.64001H43.131L45.9016 14.4427L48.4534 7.64001H51.485L45.3119 22.8259H42.2592L44.2658 17.822Z" fill="white"/>
<path d="M52.0967 15.829C52.0967 13.1865 54.5386 12.1894 58.0288 12.1894H59.3159V11.7339C59.3159 10.3906 58.9006 9.65496 57.4625 9.65496C56.2188 9.65496 55.6525 10.2825 55.5214 11.2575H52.5331C52.7297 8.57186 54.8673 7.37964 57.6591 7.37964C60.4508 7.37964 62.4363 8.5068 62.4363 11.5817V18.969H59.3603V17.6047C58.7062 18.5135 57.7023 19.2072 55.9145 19.2072C53.8413 19.2072 52.0979 18.2101 52.0979 15.8279M59.317 15.0052V14.0523H58.0954C56.2632 14.0523 55.1938 14.4426 55.1938 15.6559C55.1938 16.4786 55.6957 17.0201 56.8517 17.0201C58.2487 17.0201 59.317 16.2624 59.317 15.0052Z" fill="white"/>
<path d="M39.2073 5.53229C39.0374 6.4003 38.6309 6.804 37.9702 6.804C37.1384 6.804 36.6687 6.12681 36.6687 4.91913C36.6687 4.57939 36.712 4.15589 36.8187 3.79633L38.0346 3.69046C37.9491 3.98716 37.9069 4.28269 37.9069 4.51544C37.9069 4.83307 37.9912 5.06686 38.29 5.06686C38.632 5.06686 38.7808 4.62243 38.7808 3.56144L39.9746 3.43567C39.9746 4.34561 40.1245 4.7272 40.4221 4.7272C40.7197 4.7272 40.8485 4.47241 40.8485 4.05001C40.8485 3.81733 40.8263 3.56255 40.763 3.26584L42.0001 3.13904C42.0645 3.45667 42.0845 3.85918 42.0845 4.15589C42.0845 5.66027 41.5304 6.46426 40.5276 6.46426C39.8457 6.46426 39.4194 6.14663 39.205 5.53229" fill="white"/>
</svg>
